<svg width="126" height="134" viewBox="0 0 126 134" fill="none" xmlns="http://www.w3.org/2000/svg">
<path d="M125.091 34.163C123.414 33.453 116.951 30.663 115.484 29.757C114.017 28.851 111.525 27.491 111.637 26.362C111.74 25.3689 111.549 24.3673 111.087 23.4824C110.624 22.5974 109.911 21.8683 109.037 21.386C106.437 19.691 101.237 16.861 100.89 15.617C100.543 14.373 101.69 11.886 101.911 10.302C102.132 8.718 103.834 5.666 103.834 3.97C103.834 2.274 103.946 -0.894003 101.688 0.238997C99.43 1.372 99.088 4.309 97.388 6.683C95.688 9.057 91.959 14.037 91.288 15.617C90.617 17.197 85.746 21.498 84.276 22.966C82.806 24.434 76.699 33.599 75.908 36.766C75.117 39.933 67.994 52.826 64.036 56.671C60.078 60.516 49.782 72.39 48.086 74.771C46.39 77.152 36.886 91.171 35.986 93.883C34.5841 98.2278 33.4141 102.644 32.481 107.113C32.253 109.151 31.237 118.988 31.237 120.23C31.237 121.472 25.355 125.207 22.076 123.849C18.797 122.491 8.508 118.079 7.036 116.049C5.564 114.019 -0.994003 111.302 0.135997 112.77C1.266 114.238 5.336 120.349 7.597 122.158C9.858 123.967 20.497 128.158 24.451 127.135C28.405 126.112 33.051 124.535 35.651 125.549C38.251 126.563 38.137 130.303 43.679 130.982C49.221 131.661 61.435 134.259 64.038 133.582C66.641 132.905 66.861 129.961 65.959 129.626C65.057 129.291 73.082 126.344 74.554 126.344C76.026 126.344 77.603 124.307 77.719 123.516C77.835 122.725 76.473 121.481 75.119 121.481C73.6567 121.513 72.2004 121.283 70.819 120.802C69.919 120.351 69.464 118.428 70.596 117.183C71.728 115.938 74.889 111.983 75.233 109.834C75.577 107.685 74.101 107.006 75.68 105.648C77.259 104.29 79.075 101.918 79.527 103.164C79.979 104.41 83.034 113.337 84.05 115.828C85.066 118.319 86.429 126.686 86.429 127.928C86.429 129.17 85.973 133.579 87.22 133.698C88.467 133.817 94.792 134.258 95.248 133.698C95.704 133.138 97.736 132.677 98.304 132.677C98.872 132.677 102.709 133.921 103.162 132.563C103.615 131.205 104.062 128.607 102.932 128.27C101.802 127.933 100.785 125.442 100.785 125.102C100.785 124.762 98.639 111.302 98.527 109.492C98.415 107.682 97.96 99.32 97.96 98.185C97.96 97.05 98.415 87.217 98.527 85.41C98.639 83.603 98.994 78.173 99.778 76.249C100.562 74.325 100.785 71.049 101.127 68.67C101.469 66.291 99.653 64.263 99.092 61.77C98.531 59.277 96.716 56.001 97.169 53.854C97.622 51.707 99.206 44.579 100.562 43.791C101.918 43.003 105.085 42.656 107.8 42.991C110.515 43.326 114.472 44.119 115.716 43.791C117.418 43.3255 119.052 42.6411 120.577 41.755C121.709 40.955 122.163 39.831 123.065 39.155C123.967 38.479 127.395 35.148 125.1 34.176" fill="white"/>
</svg>
